# xmcd
#
# Track frame offsets: 
#        150
#        674
#        16818
#        34419
#        52726
#        68915
#        88741
#        106421
#        122215
#        139070
#        154741
#        171046
#        185067
#        202364
#        218641
#        230849
#        246801
#        264919
#        279039
#        295686
#        314707
#
# Disc length: 4433 seconds
#
# Revision: 0
# Processed by: cddbd v1.5.2PL0 Copyright (c) Steve Scherf et al.
# Submitted via: ExactAudioCopy v0.99pb4
#
DISCID=31114f15
DTITLE=Various Artist - prevue promo 1062A-2
DYEAR=2001
DGENRE=pop
TTITLE0=blank - data
TTITLE1=Journey - All The Way
TTITLE2=Nikka Costa - Like A Feather
TTITLE3=Jill Scott - A Long Walk
TTITLE4=Toya - I Do!!
TTITLE5=MDO - So Hard To Forget
TTITLE6=Tamia - Stranger In My House(Thunderpuss Radio Mix)
TTITLE7=Kristine W - Lovin' You(Hex Hector Remix)
TTITLE8=Ian Van Dahl feat Marsha - Castles In The Sky
TTITLE9=Sarina Paris - Look At Us
TTITLE10=Jeb Loy Nichols - Heaven Right Here(Applause Tag)
TTITLE11=Van Morrison and Linda Gail Lewis - Real Gone Lover
TTITLE12=Jeff Beck - Dirty Mind(Instrumental)
TTITLE13=Finley Quaye - Spiritualized 
TTITLE14=Squirrel Nut Zippers - Do What?(Swing
TTITLE15=Run DMC feat. Fred Durst - Them Girls(LYRICS!)
TTITLE16=Joseph Arthur - Exhausted 
TTITLE17=Living End - Roll On
TTITLE18=Rammstein - Links 2 3 4
TTITLE19=Journey - Higher Place
TTITLE20=Tinfed - Drop
EXTD=
EXTT0=
EXTT1=
EXTT2=
EXTT3=
EXTT4=
EXTT5=
EXTT6=
EXTT7=
EXTT8=
EXTT9=
EXTT10=
EXTT11=
EXTT12=
EXTT13=
EXTT14=
EXTT15=
EXTT16=
EXTT17=
EXTT18=
EXTT19=
EXTT20=
PLAYORDER=
